<svg xmlns="http://www.w3.org/2000/svg" viewBox="0 0 612 490"><defs><style>.cls-1{isolation:isolate;}.cls-2{fill-rule:evenodd;}.cls-3{fill:none;stroke:#000;stroke-width:0;}</style></defs><g id="Rectangle_2" data-name="Rectangle 2" class="cls-1"><g id="Rectangle_2-2" data-name="Rectangle 2"><path class="cls-2" d="M526,1H86A85,85,0,0,0,1,86V404a85,85,0,0,0,85,85H526a85,85,0,0,0,85-85V86A85,85,0,0,0,526,1Zm45,402a46,46,0,0,1-46,46H87a46,46,0,0,1-46-46V87A46,46,0,0,1,87,41H525a46,46,0,0,1,46,46Z"/><path class="cls-3" d="M526,1H86A85,85,0,0,0,1,86V404a85,85,0,0,0,85,85H526a85,85,0,0,0,85-85V86A85,85,0,0,0,526,1Zm45,402a46,46,0,0,1-46,46H87a46,46,0,0,1-46-46V87A46,46,0,0,1,87,41H525a46,46,0,0,1,46,46Z"/></g></g><g id="Color_Fill_1" data-name="Color Fill 1" class="cls-1"><g id="Color_Fill_1-2" data-name="Color Fill 1"><path class="cls-2" d="M291,276c-10.18-7.7-21-17-21-17s24-27.93,40-56a286.11,286.11,0,0,0,24-56h36V110H263V74H225v36H118v37H295a254.38,254.38,0,0,1-20,43c-12.75,21.51-31,43-31,43s-10.29-12.31-19-25a274.91,274.91,0,0,1-16-27H167a273.49,273.49,0,0,0,22,40c9.07,13.53,29,38,29,38s-21.23,18.49-45,32-50,22-50,22l10,36s33.34-11.05,61-27c27.84-16.05,50-37,50-37a308.29,308.29,0,0,0,25,20c14.18,10,29,19,29,19l14-35A143.82,143.82,0,0,1,291,276Zm124-59H378L299,415h40l21-53h73l21,53h40ZM374,325l22.5-54L419,325Z"/></g></g></svg>