<svg xmlns="http://www.w3.org/2000/svg" viewBox="0 0 900 440"><defs><style>.cls-1{isolation:isolate;}.cls-2{fill-rule:evenodd;}.cls-3{fill:none;stroke:#000;stroke-width:0;}</style></defs><g id="BASE" class="cls-1"><g id="BASE-2" data-name="BASE"><path class="cls-2" d="M680,1H220a219,219,0,0,0,0,438H680A219,219,0,0,0,680,1ZM251,280a308.29,308.29,0,0,1-25-20S203.84,281,176,297c-27.66,15.95-61,27-61,27l-10-36s26.27-8.51,50-22,45-32,45-32-19.93-24.47-29-38a273.49,273.49,0,0,1-22-40h42a274.91,274.91,0,0,0,16,27c8.71,12.69,19,25,19,25s18.25-21.49,31-43a254.38,254.38,0,0,0,20-43H100V85H207V49h38V85H352v37H316a286.11,286.11,0,0,1-24,56c-16,28.07-40,56-40,56s10.82,9.3,21,17a143.82,143.82,0,0,0,21,13l-14,35S265.18,290,251,280ZM436,390l-21-53H342l-21,53H281l79-198h37l79,198Zm243.48,1.44a172.06,172.06,0,1,1,172-172.06A172.06,172.06,0,0,1,679.48,391.44ZM356,300h45l-22.5-54Z"/><path class="cls-3" d="M680,1H220a219,219,0,0,0,0,438H680A219,219,0,0,0,680,1ZM251,280a308.29,308.29,0,0,1-25-20S203.84,281,176,297c-27.66,15.95-61,27-61,27l-10-36s26.27-8.51,50-22,45-32,45-32-19.93-24.47-29-38a273.49,273.49,0,0,1-22-40h42a274.91,274.91,0,0,0,16,27c8.71,12.69,19,25,19,25s18.25-21.49,31-43a254.38,254.38,0,0,0,20-43H100V85H207V49h38V85H352v37H316a286.11,286.11,0,0,1-24,56c-16,28.07-40,56-40,56s10.82,9.3,21,17a143.82,143.82,0,0,0,21,13l-14,35S265.18,290,251,280ZM436,390l-21-53H342l-21,53H281l79-198h37l79,198Zm243.48,1.44a172.06,172.06,0,1,1,172-172.06A172.06,172.06,0,0,1,679.48,391.44ZM356,300h45l-22.5-54Z"/></g></g><g id="TICK" class="cls-1"><g id="TICK-2" data-name="TICK"><path class="cls-2" d="M793,176l-26-26a13.25,13.25,0,0,0-14,0l-94,94-53-53s-4-2-7-2-7,2-7,2l-25,24a17,17,0,0,0,0,16l83,84s5,3,9,3,9-3,9-3L793,190s2-4.08,2-7S793,176,793,176Z"/><path class="cls-3" d="M793,176l-26-26a13.25,13.25,0,0,0-14,0l-94,94-53-53s-4-2-7-2-7,2-7,2l-25,24a17,17,0,0,0,0,16l83,84s5,3,9,3,9-3,9-3L793,190s2-4.08,2-7S793,176,793,176Z"/></g></g></svg>